<svg xmlns="http://www.w3.org/2000/svg" viewBox="0 0 1024 1024" width="1024" height="1024">
<defs>
<linearGradient id="skinGrad" x1="0" y1="0" x2="1" y2="1">
<stop offset="0" stop-color="#F6D2AC"/>
<stop offset="1" stop-color="#E8B78C"/>
</linearGradient>
<linearGradient id="hairGrad" x1="0" y1="0" x2="0" y2="1">
<stop offset="0" stop-color="#3B2A1E"/>
<stop offset="1" stop-color="#17110B"/>
</linearGradient>
<linearGradient id="hairGradLight" x1="0" y1="0" x2="0" y2="1">
<stop offset="0" stop-color="#4A3524"/>
<stop offset="1" stop-color="#2A1D14"/>
</linearGradient>
<linearGradient id="blazerGrad" x1="0" y1="0" x2="1" y2="1">
<stop offset="0" stop-color="#28406B"/>
<stop offset="1" stop-color="#152238"/>
</linearGradient>
<linearGradient id="shirtGrad" x1="0" y1="0" x2="0" y2="1">
<stop offset="0" stop-color="#E4F1FB"/>
<stop offset="1" stop-color="#C7E3F5"/>
</linearGradient>
<linearGradient id="pantsGrad" x1="0" y1="0" x2="1" y2="1">
<stop offset="0" stop-color="#22314A"/>
<stop offset="1" stop-color="#141C2B"/>
</linearGradient>
<linearGradient id="deskGrad" x1="0" y1="0" x2="0" y2="1">
<stop offset="0" stop-color="#FFFFFF"/>
<stop offset="1" stop-color="#E7EBF0"/>
</linearGradient>
<linearGradient id="screenGrad" x1="0" y1="0" x2="0" y2="1">
<stop offset="0" stop-color="#1B2A4A"/>
<stop offset="1" stop-color="#0D1626"/>
</linearGradient>
<linearGradient id="keyboardGrad" x1="0" y1="0" x2="0" y2="1">
<stop offset="0" stop-color="#EDEFF2"/>
<stop offset="1" stop-color="#D7DCE2"/>
</linearGradient>
<linearGradient id="accentGrad" x1="0" y1="0" x2="1" y2="0">
<stop offset="0" stop-color="#22D3EE"/>
<stop offset="1" stop-color="#2563EB"/>
</linearGradient>
<linearGradient id="chairGrad" x1="0" y1="0" x2="0" y2="1">
<stop offset="0" stop-color="#C4CCD6"/>
<stop offset="1" stop-color="#9CA7B4"/>
</linearGradient>
<filter id="softShadow" x="-50%" y="-50%" width="200%" height="200%">
<feDropShadow dx="0" dy="8" stdDeviation="10" flood-color="#1B2A4A" flood-opacity="0.15"/>
</filter>
<filter id="groundShadow" x="-50%" y="-50%" width="200%" height="200%">
<feGaussianBlur stdDeviation="18"/>
</filter>
</defs>
<rect width="1024" height="1024" fill="#FFFFFF"/>
<ellipse cx="512" cy="945" rx="270" ry="34" fill="#1B2A4A" opacity="0.1" filter="url(#groundShadow)"/>
<g transform="translate(60,60) scale(0.9)" filter="url(#softShadow)" opacity="0.9">
<ellipse cx="45" cy="55" rx="42" ry="30" fill="url(#accentGrad)"/>
<ellipse cx="95" cy="35" rx="52" ry="36" fill="url(#accentGrad)"/>
<ellipse cx="145" cy="55" rx="36" ry="26" fill="url(#accentGrad)"/>
<rect x="35" y="55" width="145" height="38" rx="19" fill="url(#accentGrad)"/>
</g>
<g transform="translate(810,68) scale(0.92)" filter="url(#softShadow)" opacity="0.92">
<rect x="0" y="0" width="105" height="105" rx="20" fill="url(#blazerGrad)"/>
<rect x="20" y="20" width="65" height="65" rx="10" fill="none" stroke="url(#accentGrad)" stroke-width="3"/>
<circle cx="52.5" cy="52.5" r="12" fill="url(#accentGrad)"/>
<line x1="52.5" y1="0" x2="52.5" y2="20" stroke="url(#accentGrad)" stroke-width="3"/>
<line x1="52.5" y1="85" x2="52.5" y2="105" stroke="url(#accentGrad)" stroke-width="3"/>
<line x1="0" y1="52.5" x2="20" y2="52.5" stroke="url(#accentGrad)" stroke-width="3"/>
<line x1="85" y1="52.5" x2="105" y2="52.5" stroke="url(#accentGrad)" stroke-width="3"/>
</g>
<g transform="translate(457,22) scale(0.95)" filter="url(#softShadow)" opacity="0.92">
<rect x="0" y="0" width="120" height="42" rx="21" fill="url(#blazerGrad)"/>
<text x="60" y="27" font-family="Segoe UI, Arial, sans-serif" font-size="16" font-weight="600" fill="#FFFFFF" text-anchor="middle" letter-spacing="1">SQL</text>
</g>
<g transform="translate(915,400) scale(0.9)" filter="url(#softShadow)" opacity="0.9">
<ellipse cx="0" cy="0" rx="44" ry="14" fill="url(#accentGrad)"/>
<rect x="-44" y="0" width="88" height="90" fill="#DCEBF7"/>
<ellipse cx="0" cy="90" rx="44" ry="14" fill="url(#accentGrad)"/>
<ellipse cx="0" cy="30" rx="44" ry="14" fill="none" stroke="#B8D6EA" stroke-width="1.5"/>
<ellipse cx="0" cy="60" rx="44" ry="14" fill="none" stroke="#B8D6EA" stroke-width="1.5"/>
</g>
<g transform="translate(30,468) scale(0.92)" filter="url(#softShadow)" opacity="0.92">
<rect x="0" y="0" width="165" height="125" rx="16" fill="#FFFFFF"/>
<rect x="16" y="16" width="48" height="7" rx="3.5" fill="#B0BEC5"/>
<rect x="16" y="78" width="15" height="32" rx="3" fill="url(#accentGrad)"/>
<rect x="38" y="63" width="15" height="47" rx="3" fill="#2563EB"/>
<rect x="60" y="48" width="15" height="62" rx="3" fill="url(#accentGrad)"/>
<polyline points="92,98 110,80 124,89 142,54" fill="none" stroke="#2563EB" stroke-width="2.5"/>
<circle cx="142" cy="54" r="4" fill="#22D3EE"/>
</g>
<g transform="translate(35,868) scale(0.92)" filter="url(#softShadow)" opacity="0.9">
<line x1="0" y1="24" x2="225" y2="24" stroke="#B0BEC5" stroke-width="2"/>
<circle cx="0" cy="24" r="13" fill="url(#accentGrad)"/>
<circle cx="75" cy="24" r="13" fill="#DCEBF7"/>
<circle cx="150" cy="24" r="13" fill="url(#accentGrad)"/>
<circle cx="225" cy="24" r="13" fill="#1B2A4A"/>
<path d="M59,24 L69,19 L69,29 Z" fill="#2563EB"/>
<path d="M134,24 L144,19 L144,29 Z" fill="#2563EB"/>
</g>
<g transform="translate(800,858) scale(0.9)" filter="url(#softShadow)" opacity="0.9">
<rect x="0" y="0" width="165" height="115" rx="14" fill="#FFFFFF"/>
<line x1="20" y1="92" x2="145" y2="92" stroke="#B0BEC5" stroke-width="1.5"/>
<line x1="20" y1="20" x2="20" y2="92" stroke="#B0BEC5" stroke-width="1.5"/>
<polyline points="26,78 55,58 82,68 110,34 140,44" fill="none" stroke="#2563EB" stroke-width="3"/>
<circle cx="140" cy="44" r="4.5" fill="#22D3EE"/>
</g>
<g transform="translate(472,935) scale(0.85)" filter="url(#softShadow)" opacity="0.9">
<path d="M40,0 L78,13 L78,42 C78,66 59,83 40,91 C21,83 2,66 2,42 L2,13 Z" fill="url(#blazerGrad)"/>
<path d="M20,45 L33,58 L60,28" fill="none" stroke="#22D3EE" stroke-width="6" stroke-linecap="round" stroke-linejoin="round"/>
</g>
<g transform="translate(230,110) scale(1.15)">
<rect x="120" y="300" width="260" height="300" rx="60" fill="url(#chairGrad)" filter="url(#softShadow)"/>
<rect x="110" y="600" width="280" height="36" rx="16" fill="url(#chairGrad)"/>
<ellipse cx="280" cy="597" rx="150" ry="14" fill="#000000" opacity="0.05"/>
<path d="M158,562 C158,547 165,534 184,532 L298,532 C316,534 322,547 322,562 L322,648 C322,670 158,670 158,648 Z" fill="url(#pantsGrad)"/>
<rect x="-40" y="640" width="580" height="26" rx="8" fill="url(#deskGrad)" filter="url(#softShadow)"/>
<rect x="-10" y="666" width="18" height="130" fill="#D7DCE2"/>
<rect x="512" y="666" width="18" height="130" fill="#D7DCE2"/>
<path d="M155,345 C155,303 183,272 250,272 L312,272 C378,272 408,303 406,345 L404,555 C404,586 156,586 156,555 Z" fill="url(#blazerGrad)"/>
<ellipse cx="280" cy="560" rx="120" ry="14" fill="#000000" opacity="0.06"/>
<path d="M256,277 L306,277 L296,322 L266,322 Z" fill="url(#shirtGrad)"/>
<path d="M256,277 L232,342 L271,331 Z" fill="#1B2A4A"/>
<path d="M306,277 L331,342 L292,331 Z" fill="#1B2A4A"/>
<path d="M156,325 C127,346 108,384 112,432 C114,462 120,520 124,558 L166,552 C161,510 155,458 154,420 C154,388 158,355 174,330 Z" fill="url(#blazerGrad)"/>
<path d="M404,325 C433,346 452,384 448,432 C446,462 440,520 436,558 L394,552 C399,510 405,458 406,420 C406,388 402,355 386,330 Z" fill="url(#blazerGrad)"/>
<path d="M170,600 C170,592 176,586 184,586 L376,586 C384,586 390,592 390,600 L392,616 C392,622 386,626 378,626 L182,626 C174,626 168,622 168,616 Z" fill="url(#keyboardGrad)"/>
<line x1="185" y1="600" x2="375" y2="600" stroke="#C3C9D1" stroke-width="1"/>
<line x1="185" y1="609" x2="375" y2="609" stroke="#C3C9D1" stroke-width="1"/>
<line x1="185" y1="618" x2="375" y2="618" stroke="#C3C9D1" stroke-width="1"/>
<path d="M180,588 L380,588 L372,462 C371,452 364,446 355,446 L205,446 C196,446 189,452 188,462 Z" fill="url(#screenGrad)" filter="url(#softShadow)"/>
<rect x="198" y="470" width="164" height="112" rx="4" fill="#0B1626"/>
<circle cx="207" cy="478" r="2.5" fill="#3A4A66"/>
<circle cx="215" cy="478" r="2.5" fill="#3A4A66"/>
<circle cx="223" cy="478" r="2.5" fill="#3A4A66"/>
<text x="280" y="481" font-family="Segoe UI, Arial, sans-serif" font-size="7" fill="#7F8FA6" text-anchor="middle">Query Editor</text>
<text x="207" y="497" font-family="Consolas, Menlo, monospace" font-size="7.5" fill="#4A5A74">1</text>
<text x="217" y="497" font-family="Consolas, Menlo, monospace" font-size="7.5" fill="#22D3EE">SELECT</text>
<text x="245" y="497" font-family="Consolas, Menlo, monospace" font-size="7.5" fill="#DCEBF7">region, revenue</text>
<text x="207" y="507" font-family="Consolas, Menlo, monospace" font-size="7.5" fill="#4A5A74">2</text>
<text x="217" y="507" font-family="Consolas, Menlo, monospace" font-size="7.5" fill="#22D3EE">FROM</text>
<text x="238" y="507" font-family="Consolas, Menlo, monospace" font-size="7.5" fill="#DCEBF7">sales_fact</text>
<text x="207" y="517" font-family="Consolas, Menlo, monospace" font-size="7.5" fill="#4A5A74">3</text>
<text x="217" y="517" font-family="Consolas, Menlo, monospace" font-size="7.5" fill="#22D3EE">GROUP BY</text>
<text x="255" y="517" font-family="Consolas, Menlo, monospace" font-size="7.5" fill="#DCEBF7">region;</text>
<rect x="217" y="521" width="5" height="8" fill="#22D3EE" opacity="0.8"/>
<rect x="198" y="533" width="76" height="49" rx="5" fill="#14213D"/>
<circle cx="206" cy="540" r="2" fill="#22D3EE"/>
<text x="212" y="543" font-family="Segoe UI, Arial, sans-serif" font-size="6" fill="#8FA3BE">Revenue</text>
<text x="206" y="558" font-family="Segoe UI, Arial, sans-serif" font-size="11" font-weight="700" fill="#FFFFFF">$482K</text>
<polyline points="206,573 218,566 230,570 242,558 254,562 264,552" fill="none" stroke="#22D3EE" stroke-width="1.6"/>
<rect x="280" y="533" width="80" height="49" rx="5" fill="#14213D"/>
<circle cx="288" cy="540" r="2" fill="#2563EB"/>
<text x="294" y="543" font-family="Segoe UI, Arial, sans-serif" font-size="6" fill="#8FA3BE">By Region</text>
<rect x="288" y="562" width="9" height="15" fill="#2563EB"/>
<rect x="301" y="554" width="9" height="23" fill="#22D3EE"/>
<rect x="314" y="560" width="9" height="17" fill="#2563EB"/>
<rect x="327" y="548" width="9" height="29" fill="#22D3EE"/>
<rect x="340" y="558" width="9" height="19" fill="#2563EB"/>
<path d="M114,562 C118,556 126,553 133,556 L160,566 C165,568 166,574 162,577 L128,588 C122,590 116,586 116,580 Z" fill="url(#skinGrad)"/>
<line x1="128" y1="565" x2="132" y2="580" stroke="#D9A876" stroke-width="1" opacity="0.5"/>
<line x1="138" y1="562" x2="142" y2="578" stroke="#D9A876" stroke-width="1" opacity="0.5"/>
<line x1="148" y1="562" x2="151" y2="577" stroke="#D9A876" stroke-width="1" opacity="0.5"/>
<path d="M446,562 C442,556 434,553 427,556 L400,566 C395,568 394,574 398,577 L432,588 C438,590 444,586 444,580 Z" fill="url(#skinGrad)"/>
<line x1="432" y1="565" x2="428" y2="580" stroke="#D9A876" stroke-width="1" opacity="0.5"/>
<line x1="422" y1="562" x2="418" y2="578" stroke="#D9A876" stroke-width="1" opacity="0.5"/>
<line x1="412" y1="562" x2="409" y2="577" stroke="#D9A876" stroke-width="1" opacity="0.5"/>
<rect x="247" y="228" width="66" height="58" rx="20" fill="url(#skinGrad)"/>
<ellipse cx="280" cy="278" rx="34" ry="10" fill="#000000" opacity="0.04"/>
<path d="M188,148 C184,78 224,22 280,22 C336,22 376,78 372,148 C374,224 380,308 362,372 C355,340 350,300 348,260 C346,205 336,140 313,112 C300,96 280,90 280,90 C260,90 240,96 247,112 C224,140 214,205 212,260 C210,300 205,340 198,372 C180,308 186,224 188,148 Z" fill="url(#hairGrad)"/>
<path d="M197,145 C194,90 228,42 280,42 C332,42 366,90 363,145 C364,168 366,190 365,210 C358,182 352,158 344,140 C334,116 312,102 280,100 C248,102 226,116 216,140 C208,158 202,182 195,210 C194,190 196,168 197,145 Z" fill="url(#hairGradLight)" opacity="0.55"/>
<path d="M198,142 C196,86 232,38 280,38 C328,38 364,86 362,142" fill="none" stroke="#4A3524" stroke-width="1.2" opacity="0.35"/>
<circle cx="280" cy="98" r="20" fill="url(#hairGrad)"/>
<path d="M226,132 Q246,122 264,130" stroke="#3B2A1E" stroke-width="4.5" fill="none" stroke-linecap="round"/>
<path d="M296,130 Q314,122 334,132" stroke="#3B2A1E" stroke-width="4.5" fill="none" stroke-linecap="round"/>
<ellipse cx="247" cy="152" rx="13" ry="8.5" fill="#FFFFFF"/>
<circle cx="248" cy="152" r="5.8" fill="#4A3324"/>
<circle cx="249" cy="150.5" r="1.6" fill="#FFFFFF"/>
<circle cx="248" cy="152" r="2.2" fill="#000000"/>
<path d="M234,148 Q247,140 260,148" stroke="#2A1D14" stroke-width="2" fill="none"/>
<ellipse cx="313" cy="152" rx="13" ry="8.5" fill="#FFFFFF"/>
<circle cx="312" cy="152" r="5.8" fill="#4A3324"/>
<circle cx="313" cy="150.5" r="1.6" fill="#FFFFFF"/>
<circle cx="312" cy="152" r="2.2" fill="#000000"/>
<path d="M300,148 Q313,140 326,148" stroke="#2A1D14" stroke-width="2" fill="none"/>
<path d="M279,152 C277,164 273,175 280,180 C287,175 283,164 281,152" fill="none" stroke="#D9A876" stroke-width="2.2" stroke-linecap="round"/>
<ellipse cx="232" cy="182" rx="11" ry="6.5" fill="#F0A98A" opacity="0.25"/>
<ellipse cx="328" cy="182" rx="11" ry="6.5" fill="#F0A98A" opacity="0.25"/>
<path d="M258,203 Q280,213 302,203 C296,210 288,214 280,214 C272,214 264,210 258,203 Z" fill="#C97C6B"/>
<path d="M262,205 Q280,210 298,205" fill="none" stroke="#B5695A" stroke-width="1" opacity="0.6"/>
</g>
</svg>
